<?xml version="1.0" encoding="UTF-8"?>
<!DOCTYPE svg PUBLIC "-//W3C//DTD SVG 1.1//EN" "http://www.w3.org/Graphics/SVG/1.1/DTD/svg11.dtd">
<svg version="1.1" xmlns="http://www.w3.org/2000/svg" xmlns:xlink="http://www.w3.org/1999/xlink" x="0px" y="0px" width="1000" height="427.5" viewBox="0, 0, 1000, 427.5">
  <g id="Background">
    <rect x="0" y="0" width="1000" height="427.5" fill="#000000" fill-opacity="0"/>
  </g>
  <g id="Layer 1">
    <g>
      <path d="M547.05,35.393 L550.074,32.37 L592.49,95.275 L585.926,95.275 z" fill="#000000"/>
      <path d="M714.1,29.086 L717.253,29.086 L723.031,116.547 L715.938,116.547 z" fill="#000000"/>
      <path d="M879.31,22.519 L883.247,23.569 L824.674,134.673 L816.799,132.835 z" fill="#000000"/>
      <path d="M853.044,139.139 L858.038,139.139 L859.876,134.936 L857.508,133.36 z" fill="#000000"/>
      <path d="M602.994,120.482 L610.349,120.482 L621.119,136.242 L611.664,135.45 z" fill="#000000"/>
      <path d="M631.099,165.656 L642.922,165.656 L649.751,174.065 L635.828,174.323 z" fill="#000000"/>
      <path d="M688.883,140.181 L692.824,140.181 L694.135,144.38 L690.198,144.38 z" fill="#000000"/>
      <path d="M715.939,133.614 L724.602,135.191 L725.917,146.749 L716.2,145.699 z" fill="#000000"/>
      <path d="M772.408,140.181 L775.825,140.969 L773.199,151.735 L768.47,150.689 z" fill="#000000"/>
      <path d="M808.128,145.957 L818.64,146.219 L813.645,155.938 L803.141,154.627 z" fill="#000000"/>
      <path d="M844.901,148.324 L848.58,150.424 L843.328,158.302 L838.072,157.256 z" fill="#000000"/>
      <path d="M695.19,167.495 L700.443,167.757 L701.492,174.847 L696.502,175.116 z" fill="#000000"/>
      <path d="M715.148,167.495 L728.283,168.022 L729.856,176.162 L715.148,176.162 z" fill="#000000"/>
      <path d="M763.478,169.073 L767.68,170.122 L766.104,176.424 L761.117,176.163 z" fill="#000000"/>
      <path d="M793.687,170.387 L805.768,170.649 L803.142,178.527 L788.693,177.739 z" fill="#000000"/>
      <path d="M827.827,170.387 L832.822,171.437 L827.304,178.527 L821.79,178.266 z" fill="#000000"/>
      <path d="M576.204,325.864 L586.189,324.817 L579.099,335.325 L574.893,335.325 z" fill="#000000"/>
      <path d="M623.484,313.262 L630.578,314.05 L628.21,318.779 L626.372,318.514 z" fill="#000000"/>
      <path d="M633.204,399.672 L642.659,399.672 L618.497,424.887 L613.506,424.102 z" fill="#000000"/>
      <path d="M727.498,399.672 L735.115,399.933 L734.588,423.837 L729.074,424.625 z" fill="#000000"/>
      <path d="M823.1,400.717 L830.456,399.671 L853.568,423.836 L848.315,424.359 z" fill="#000000"/>
      <path d="M511.003,195.383 C511.003,195.383 522.78,200.795 522.236,207.293 C518.585,207.157 510.731,196.464 511.003,195.383" fill="#000000"/>
      <path d="M615.003,241.29 L673.365,303.372 C673.365,303.372 679.946,312.527 671.077,313.678 C662.208,314.815 652.195,313.678 652.195,313.678 C652.195,313.678 656.492,318.819 651.623,323.684 C650.197,324.821 661.353,324.535 660.495,331.688 C672.869,327.307 664.785,324.535 689.672,325.4 C691.817,325.473 692.17,329.048 694.824,329.979 C697.397,328.828 706.266,312.241 706.266,312.241 L718.281,312.806 C718.281,312.806 714.549,306.814 704.829,303.944 C704.264,301.935 704.544,297.942 704.544,297.942 C704.544,297.942 695.682,303.372 697.683,298.507 C695.396,296.505 682.233,301.363 689.958,299.072 C694.102,294.646 701.059,294.043 701.977,292.208 C702.549,291.068 701.401,295.647 700.829,297.07 C703.406,296.219 711.417,284.491 704.836,277.909 C705.175,274.952 705.98,270.763 706.266,270.191 C700.829,269.04 701.977,262.745 701.977,262.745 C701.977,262.745 693.966,259.6 692.246,257.884 C687.88,253.521 697.683,258.463 701.687,260.75 C705.694,263.038 706.838,266.753 706.838,266.753 C706.838,266.753 713.991,265.037 714.277,265.33 C714.277,260.172 719.952,245.893 717.995,241.576 C714.849,242.148 713.991,242.441 713.991,242.441 C713.991,242.441 711.99,233.572 713.133,230.705 C714.277,227.845 715.707,235.574 715.993,237.865 C716.279,240.153 717.137,238.151 721.423,237.286 C729.727,268.475 742.886,238.723 742.886,238.723 C742.886,238.723 739.74,237.286 741.449,233.572 C761.196,205.246 744.602,233.572 744.888,236.146 C745.174,238.723 748.738,236.128 750.325,237 C752.899,238.437 745.174,263.038 770.344,243.013 C771.278,242.27 772.631,247.156 773.489,246.441 C774.061,246.155 779.498,233.286 784.078,230.998 C781.786,236.711 780.642,245.301 778.069,245.587 C774.281,245.105 763.769,274.185 788.081,264.465 C793.233,261.888 792.657,264.751 791.513,267.039 C793.975,267.039 809.823,257.312 809.823,257.312 C809.823,257.312 805.443,262.044 797.236,268.475 C795.716,269.665 794.662,271.328 791.799,271.042 C781.106,279.984 776.925,293.645 796.371,294.217 C796.092,294.217 795.799,296.791 795.799,296.791 L807.249,298.221 C807.249,298.221 794.948,301.649 790.655,299.93 C790.369,300.223 790.934,297.077 790.934,297.077 C790.934,297.077 781.786,297.07 775.781,308.799 C774.923,310.239 782.93,311.376 780.642,318.819 C785.794,319.673 782.072,318.24 785.508,320.824 C785.344,321.549 782.072,323.398 779.784,319.959 C771.093,319.303 755.598,318.589 753.75,324.535 C753.185,324.249 765.771,325.4 765.771,325.4 C765.771,325.4 769.486,331.402 771.487,330.551 C773.489,329.686 774.633,325.972 774.633,325.972 C774.633,325.972 867.051,318.533 994.926,337.418 C995.212,337.704 997.5,332.553 997.5,332.553 C997.5,332.553 865.903,321.682 822.699,300.23 C855.604,297.356 916.529,293.366 916.529,293.366 L917.108,289.352 C917.108,289.352 815.536,294.514 809.537,291.93 C790.094,265.902 863.901,228.71 940.562,180.644 C940.004,180.644 936.841,177.499 936.841,177.499 C936.841,177.499 782.937,276.759 789.232,231.57 C802.68,210.683 815.267,194.664 815.267,194.664 L807.256,196.094 C807.256,196.094 779.509,240.725 796.385,196.666 C796.385,197.238 768.921,199.526 768.921,199.526 C768.921,199.526 755.187,216.117 759.766,200.384 C759.766,200.674 752.613,200.96 752.613,200.96 C752.613,200.96 753.757,223.266 738.307,202.672 C738.024,201.817 703.41,206.679 703.41,206.679 C703.41,206.679 703.124,210.683 702.552,211.827 C699.117,212.685 690.952,214.219 685.672,209.249 C685.386,209.249 654.486,211.541 654.486,211.541 C654.486,211.541 685.655,268.755 615.003,241.29" fill="#000000"/>
      <path d="M75.318,349.582 L51.128,336.936 L27.001,349.666 L31.563,322.79 L11.976,303.786 L38.988,299.825 L51.023,275.342 L63.143,299.776 L90.164,303.637 L70.655,322.714 z" fill="#000000"/>
      <path d="M247.568,42.416 L855.564,145.436 L330.304,80.658 L406.009,156.362 L276.449,156.362 L246.009,214.117 L196.841,214.117 L231.18,156.362 L246.79,156.362 L278.789,99.386 L301.423,99.386 z" fill="#000000"/>
      <path d="M117.605,363.968 C121.389,356.1 126.233,346.398 132.151,334.829 C122.958,348.103 116.395,357.82 112.457,363.968 z M151.277,319.352 L119.771,388.73 L104.502,388.73 L110.898,376.262 L105.555,376.262 L97.457,388.73 L82.007,388.73 L129.682,319.352 z" fill="#000000"/>
      <path d="M168.873,331.868 L165.5,337.274 C167.851,335.129 170.107,333.521 172.266,332.444 C174.425,331.376 176.483,330.836 178.446,330.836 C182.279,330.836 184.058,332.991 183.779,337.274 C186.227,335.129 188.515,333.521 190.649,332.444 C192.78,331.376 194.775,330.836 196.617,330.836 C199.054,330.836 200.659,331.558 201.433,332.974 C202.204,334.411 202.221,336.154 201.471,338.226 C200.725,340.298 199.009,343.67 196.32,348.319 L172.995,388.73 L159.076,388.73 L180.476,351.66 C183.28,346.809 184.881,343.803 185.275,342.648 C185.669,341.494 185.373,340.904 184.379,340.904 C183.36,340.904 182.38,341.473 181.421,342.627 C180.465,343.761 178.572,346.785 175.757,351.66 L154.357,388.73 L140.449,388.73 L161.301,352.609 C164.52,347.032 166.334,343.698 166.749,342.585 C167.171,341.469 166.871,340.904 165.853,340.904 C165.214,340.904 164.499,341.208 163.715,341.783 C162.926,342.369 162.264,343.088 161.734,343.928 C161.197,344.772 160.14,346.565 158.553,349.303 L135.797,388.73 L121.885,388.73 L154.71,331.868 z" fill="#000000"/>
      <path d="M217.205,352.041 L219.604,347.891 C221.303,344.947 222.265,343.057 222.503,342.192 C222.736,341.341 222.45,340.905 221.648,340.905 C220.651,340.905 219.831,341.271 219.169,342 C218.513,342.729 217.261,344.7 215.416,347.891 L213.016,352.041 z M226.231,361.311 L207.67,361.311 L200.566,373.601 C199.091,376.172 198.281,377.832 198.159,378.571 C198.041,379.314 198.417,379.687 199.293,379.687 C200.384,379.687 201.396,379.195 202.331,378.205 C203.265,377.218 204.549,375.317 206.181,372.489 L210.512,364.99 L224.107,364.99 L221.683,369.182 C219.653,372.701 217.913,375.394 216.459,377.284 C214.997,379.174 212.975,381.187 210.397,383.325 C207.809,385.473 205.173,387.074 202.48,388.148 C199.792,389.226 196.886,389.756 193.762,389.756 C190.734,389.756 188.366,389.229 186.657,388.165 C184.949,387.116 183.986,385.658 183.759,383.816 C183.529,381.985 183.808,379.952 184.586,377.741 C185.374,375.516 186.982,372.3 189.426,368.07 L198.996,351.497 C201.87,346.524 204.685,342.607 207.457,339.733 C210.226,336.863 213.316,334.659 216.731,333.131 C220.145,331.604 223.497,330.837 226.785,330.837 C230.807,330.837 233.593,331.757 235.145,333.606 C236.697,335.447 237.123,337.878 236.418,340.923 C235.717,343.967 233.771,348.253 230.587,353.764 z" fill="#000000"/>
      <path d="M262.254,331.868 L257.368,339.346 C262.543,333.989 267.199,331.153 271.329,330.836 L259.774,350.848 C257.148,350.848 254.975,351.277 253.249,352.138 C251.526,352.989 250.075,354.182 248.911,355.713 C247.746,357.237 245.573,360.763 242.389,366.277 L229.425,388.73 L215.088,388.73 L247.913,331.868 z" fill="#000000"/>
      <path d="M288.693,331.868 L255.865,388.73 L241.102,388.73 L273.93,331.868 z M295.916,319.351 L290.699,328.395 L275.936,328.395 L281.157,319.351 z" fill="#000000"/>
      <path d="M313.141,353.335 L299.616,353.335 L303.4,346.786 C304.722,344.498 305.461,342.946 305.625,342.126 C305.792,341.314 305.458,340.906 304.627,340.906 C303.797,340.906 303.037,341.268 302.34,341.98 C301.646,342.695 300.575,344.292 299.142,346.786 L283.657,373.602 C282.488,375.631 281.819,377.152 281.665,378.163 C281.501,379.178 281.836,379.687 282.666,379.687 C283.636,379.687 284.595,379.157 285.55,378.111 C286.506,377.047 287.828,375.045 289.526,372.102 L293.439,365.336 L306.214,365.336 C303.571,369.873 301.464,373.281 299.905,375.548 C298.346,377.825 296.208,380.155 293.499,382.537 C290.782,384.929 288.002,386.718 285.146,387.932 C282.286,389.149 279.276,389.756 276.106,389.756 C272.06,389.756 269.333,388.922 267.938,387.248 C266.533,385.581 266.208,383.238 266.976,380.221 C267.729,377.215 269.703,372.932 272.908,367.387 L282.234,351.236 C285.02,346.402 287.524,342.764 289.746,340.313 C291.971,337.857 294.953,335.653 298.688,333.732 C302.434,331.796 306.183,330.837 309.946,330.837 C313.681,330.837 316.325,331.796 317.866,333.711 C319.415,335.629 319.784,338.035 318.982,340.951 C318.166,343.866 316.231,347.992 313.141,353.335" fill="#000000"/>
      <path d="M329.935,361.693 C326.465,363.723 324.156,365.411 322.994,366.788 C321.837,368.159 320.515,370.14 319.029,372.7 C317.334,375.643 316.396,377.544 316.221,378.398 C316.047,379.26 316.427,379.685 317.372,379.685 C318.272,379.685 319.053,379.354 319.716,378.681 C320.375,378.008 321.53,376.243 323.179,373.383 z M329.893,353.895 L316.441,353.895 L318.642,350.079 C321.184,345.678 323.559,342.288 325.777,339.902 C327.992,337.517 330.897,335.407 334.483,333.579 C338.068,331.749 341.89,330.835 345.936,330.835 C350.787,330.835 353.842,331.878 355.108,333.949 C356.374,336.017 356.385,338.553 355.139,341.573 C353.901,344.583 350.564,350.787 345.134,360.193 L328.662,388.729 L314.711,388.729 L317.641,383.651 C315.59,385.694 313.581,387.215 311.604,388.23 C309.641,389.248 307.691,389.757 305.776,389.757 C303.269,389.757 301.459,388.903 300.35,387.201 C299.234,385.506 300.336,381.781 303.652,376.044 L306.341,371.378 C308.803,367.12 311.032,364.221 313.034,362.68 C315.039,361.131 318.837,359.328 324.424,357.271 C330.419,355.053 333.802,353.549 334.58,352.775 C335.358,352.001 336.432,350.431 337.799,348.063 C339.515,345.089 340.45,343.153 340.603,342.26 C340.753,341.36 340.404,340.903 339.553,340.903 C338.58,340.903 337.761,341.284 337.088,342.04 C336.411,342.801 335.159,344.764 333.328,347.941 z" fill="#000000"/>
      <path d="M381.009,331.868 L377.737,337.11 C379.98,335.017 382.156,333.452 384.273,332.402 C386.372,331.359 388.406,330.836 390.369,330.836 C392.831,330.836 394.439,331.537 395.189,332.942 C395.946,334.341 395.932,336.102 395.151,338.226 C394.373,340.36 392.549,343.907 389.679,348.881 L366.675,388.73 L352.334,388.73 L375.069,349.344 C377.329,345.438 378.599,343.056 378.881,342.191 C379.164,341.34 378.818,340.904 377.849,340.904 C376.834,340.904 375.91,341.4 375.08,342.39 C374.246,343.374 372.597,346.01 370.124,350.297 L347.936,388.73 L333.591,388.73 L366.417,331.868 z" fill="#000000"/>
      <path d="M444.432,340.352 L430.555,340.352 L433.527,335.208 C434.911,332.812 435.616,331.284 435.64,330.622 C435.661,329.966 435.263,329.638 434.433,329.638 C433.534,329.638 432.599,330.081 431.626,330.967 C430.653,331.856 429.652,333.192 428.606,334.999 C427.27,337.314 426.52,339.058 426.367,340.23 C426.185,341.402 426.775,342.811 428.138,344.478 C432.041,349.235 433.97,353.151 433.931,356.207 C433.896,359.262 431.912,364.186 427.988,370.983 C425.132,375.936 422.555,379.573 420.239,381.913 C417.93,384.261 414.945,386.221 411.286,387.807 C407.628,389.391 403.973,390.186 400.332,390.186 C396.332,390.186 393.447,389.269 391.672,387.441 C389.897,385.614 389.395,383.284 390.152,380.463 C390.908,377.631 392.792,373.617 395.794,368.417 L398.417,363.872 L412.291,363.872 L407.415,372.312 C405.912,374.914 405.145,376.591 405.106,377.334 C405.071,378.07 405.549,378.44 406.543,378.44 C407.534,378.44 408.549,377.969 409.574,377.031 C410.606,376.086 411.656,374.691 412.723,372.835 C415.088,368.744 416.169,366.076 415.97,364.821 C415.747,363.558 414.631,361.459 412.615,358.515 C410.613,355.551 409.396,353.396 408.971,352.042 C408.535,350.71 408.608,348.855 409.183,346.483 C409.762,344.108 411.108,341.081 413.239,337.395 C416.308,332.076 419.112,328.201 421.655,325.739 C424.197,323.284 427.123,321.362 430.433,319.974 C433.743,318.586 437.164,317.899 440.718,317.899 C444.596,317.899 447.466,318.649 449.322,320.176 C451.184,321.68 451.892,323.594 451.453,325.886 C451.013,328.191 449.2,332.097 446.012,337.614 z" fill="#000000"/>
      <path d="M463.88,347.552 C465.561,344.637 466.492,342.802 466.67,342.042 C466.851,341.285 466.509,340.905 465.655,340.905 C464.807,340.905 464.019,341.285 463.297,342.042 C462.579,342.802 461.372,344.637 459.695,347.552 L444.876,373.21 C443.32,375.906 442.452,377.653 442.271,378.459 C442.082,379.279 442.403,379.687 443.233,379.687 C444.084,379.687 444.862,379.313 445.56,378.574 C446.26,377.831 447.321,376.234 448.74,373.779 z M475.744,351.835 L467.709,365.754 C464.755,370.877 462.373,374.623 460.574,377.008 C458.77,379.397 456.57,381.626 453.979,383.69 C451.387,385.766 448.709,387.293 445.957,388.273 C443.198,389.26 440.401,389.759 437.559,389.759 C434.389,389.759 431.951,389.333 430.235,388.489 C428.519,387.645 427.539,386.379 427.309,384.677 C427.068,382.975 427.386,380.928 428.258,378.504 C429.13,376.101 430.964,372.474 433.747,367.651 L442.163,353.076 C445.211,347.789 448.07,343.67 450.732,340.692 C453.396,337.724 456.476,335.342 459.974,333.539 C463.475,331.736 467.141,330.836 470.973,330.836 C474.193,330.836 476.616,331.419 478.259,332.573 C479.895,333.731 480.808,335.241 480.99,337.089 C481.171,338.948 480.924,340.863 480.25,342.83 C479.57,344.807 478.071,347.807 475.744,351.835" fill="#000000"/>
      <path d="M513.986,319.352 L473.931,388.73 L459.165,388.73 L499.22,319.352 z" fill="#000000"/>
      <path d="M512.045,361.693 C508.578,363.723 506.269,365.411 505.105,366.788 C503.947,368.159 502.625,370.14 501.143,372.7 C499.444,375.643 498.506,377.544 498.328,378.398 C498.157,379.26 498.541,379.685 499.486,379.685 C500.386,379.685 501.167,379.354 501.823,378.681 C502.489,378.008 503.64,376.243 505.289,373.383 z M512.003,353.895 L498.551,353.895 L500.752,350.079 C503.294,345.678 505.67,342.288 507.888,339.902 C510.102,337.517 513.011,335.407 516.593,333.579 C520.178,331.749 524,330.835 528.046,330.835 C532.897,330.835 535.952,331.878 537.222,333.949 C538.481,336.017 538.495,338.553 537.253,341.573 C536.008,344.583 532.677,350.787 527.24,360.193 L510.772,388.729 L496.825,388.729 L499.755,383.651 C497.7,385.694 495.692,387.215 493.718,388.23 C491.747,389.248 489.805,389.757 487.886,389.757 C485.379,389.757 483.572,388.903 482.46,387.201 C481.344,385.506 482.449,381.781 485.762,376.044 L488.455,371.378 C490.914,367.12 493.142,364.221 495.147,362.68 C497.149,361.131 500.944,359.328 506.534,357.271 C512.526,355.053 515.916,353.549 516.694,352.775 C517.471,352.001 518.542,350.431 519.906,348.063 C521.622,345.089 522.56,343.153 522.713,342.26 C522.867,341.36 522.518,340.903 521.66,340.903 C520.69,340.903 519.871,341.284 519.198,342.04 C518.521,342.801 517.269,344.764 515.438,347.941 z" fill="#000000"/>
      <path d="M562.873,331.868 L557.991,339.346 C563.167,333.989 567.819,331.153 571.952,330.836 L560.401,350.848 C557.771,350.848 555.598,351.277 553.865,352.138 C552.146,352.989 550.695,354.182 549.534,355.713 C548.365,357.237 546.185,360.763 543.005,366.277 L530.042,388.73 L515.711,388.73 L548.536,331.868 z" fill="#000000"/>
      <path d="M612.456,349.561 L597.518,349.561 L604.48,337.508 C606.502,333.996 607.604,331.81 607.782,330.945 C607.974,330.069 607.524,329.637 606.426,329.637 C605.202,329.637 604.11,330.167 603.172,331.231 C602.23,332.277 600.748,334.565 598.718,338.08 L580.115,370.305 C578.166,373.667 577.064,375.868 576.795,376.897 C576.537,377.933 576.987,378.438 578.145,378.438 C579.261,378.438 580.276,377.933 581.211,376.897 C582.163,375.865 583.732,373.451 585.933,369.632 L590.958,360.917 L605.896,360.917 L604.337,363.623 C600.193,370.808 596.838,375.896 594.261,378.899 C591.694,381.902 588.315,384.538 584.133,386.795 C579.945,389.055 575.756,390.185 571.547,390.185 C567.173,390.185 564.107,389.229 562.371,387.311 C560.648,385.396 560.285,382.756 561.321,379.37 C562.35,375.976 564.836,370.881 568.76,364.094 L580.454,343.824 C583.348,338.816 585.657,335.077 587.383,332.573 C589.113,330.069 591.339,327.677 594.083,325.361 C596.835,323.038 599.834,321.221 603.092,319.893 C606.359,318.564 609.617,317.901 612.857,317.901 C617.258,317.901 620.296,318.933 621.973,320.981 C623.647,323.031 624.048,325.591 623.177,328.657 C622.305,331.729 620.003,336.497 616.264,342.973 z" fill="#000000"/>
      <path d="M649.171,319.352 L640.159,334.965 C642.182,333.584 644.11,332.559 645.941,331.868 C647.769,331.185 649.499,330.836 651.134,330.836 C653.638,330.836 655.33,331.614 656.202,333.152 C657.074,334.69 657.119,336.476 656.352,338.484 C655.574,340.497 653.646,344.173 650.559,349.519 L627.925,388.73 L613.594,388.73 L636.692,348.707 C638.61,345.397 639.702,343.259 639.974,342.321 C640.246,341.379 639.908,340.905 638.959,340.905 C638.087,340.905 637.216,341.39 636.344,342.37 C635.479,343.332 634.213,345.264 632.542,348.145 L609.12,388.73 L594.779,388.73 L634.833,319.352 z" fill="#000000"/>
      <path d="M665.825,361.693 C662.359,363.723 660.05,365.411 658.892,366.788 C657.734,368.159 656.409,370.14 654.927,372.7 C653.225,375.643 652.29,377.544 652.116,378.398 C651.938,379.26 652.325,379.685 653.277,379.685 C654.177,379.685 654.955,379.354 655.607,378.681 C656.27,378.008 657.427,376.243 659.073,373.383 z M665.787,353.895 L652.339,353.895 L654.533,350.079 C657.079,345.678 659.454,342.288 661.679,339.902 C663.89,337.517 666.792,335.407 670.384,333.579 C673.965,331.749 677.784,330.835 681.83,330.835 C686.678,330.835 689.736,331.878 691.006,333.949 C692.268,336.017 692.275,338.553 691.037,341.573 C689.796,344.583 686.465,350.787 681.028,360.193 L664.559,388.729 L650.609,388.729 L653.546,383.651 C651.484,385.694 649.476,387.215 647.502,388.23 C645.535,389.248 643.592,389.757 641.671,389.757 C639.163,389.757 637.36,388.903 636.244,387.201 C635.131,385.506 636.237,381.781 639.547,376.044 L642.242,371.378 C644.698,367.12 646.93,364.221 648.932,362.68 C650.934,361.131 654.731,359.328 660.315,357.271 C666.317,355.053 669.693,353.549 670.478,352.775 C671.256,352.001 672.323,350.431 673.693,348.063 C675.409,345.089 676.344,343.153 676.501,342.26 C676.651,341.36 676.302,340.903 675.451,340.903 C674.475,340.903 673.659,341.284 672.985,342.04 C672.309,342.801 671.057,344.764 669.226,347.941 z" fill="#000000"/>
      <path d="M724.31,319.352 L684.259,388.73 L669.489,388.73 L709.544,319.352 z" fill="#000000"/>
      <path d="M744.218,319.352 L704.166,388.73 L689.4,388.73 L729.455,319.352 z" fill="#000000"/>
      <path d="M748.594,352.041 L750.993,347.891 C752.695,344.947 753.654,343.057 753.888,342.192 C754.125,341.341 753.839,340.905 753.034,340.905 C752.04,340.905 751.217,341.271 750.557,342 C749.902,342.729 748.65,344.7 746.801,347.891 L744.405,352.041 z M757.62,361.311 L739.052,361.311 L731.955,373.601 C730.476,376.172 729.67,377.832 729.545,378.571 C729.426,379.314 729.806,379.687 730.685,379.687 C731.77,379.687 732.778,379.195 733.716,378.205 C734.654,377.218 735.938,375.317 737.573,372.489 L741.905,364.99 L755.496,364.99 L753.068,369.182 C751.039,372.701 749.302,375.394 747.851,377.284 C746.386,379.174 744.364,381.187 741.783,383.325 C739.195,385.473 736.558,387.074 733.873,388.148 C731.18,389.226 728.275,389.756 725.147,389.756 C722.123,389.756 719.752,389.229 718.043,388.165 C716.334,387.116 715.368,385.658 715.148,383.816 C714.914,381.985 715.197,379.952 715.975,377.741 C716.756,375.516 718.367,372.3 720.815,368.07 L730.382,351.497 C733.249,346.524 736.067,342.607 738.846,339.733 C741.619,336.863 744.705,334.659 748.12,333.131 C751.531,331.604 754.886,330.837 758.174,330.837 C762.195,330.837 764.982,331.757 766.531,333.606 C768.083,335.447 768.511,337.878 767.804,340.923 C767.102,343.967 765.16,348.253 761.972,353.764 z" fill="#000000"/>
      <path d="M793.892,331.868 L790.61,337.11 C792.856,335.017 795.036,333.452 797.149,332.402 C799.249,331.359 801.282,330.836 803.252,330.836 C805.711,330.836 807.319,331.537 808.072,332.942 C808.829,334.341 808.808,336.102 808.034,338.226 C807.256,340.36 805.425,343.907 802.555,348.881 L779.551,388.73 L765.213,388.73 L787.949,349.344 C790.212,345.438 791.482,343.056 791.754,342.191 C792.04,341.34 791.698,340.904 790.729,340.904 C789.71,340.904 788.789,341.4 787.959,342.39 C787.129,343.374 785.473,346.01 783,350.297 L760.812,388.73 L746.475,388.73 L779.3,331.868 z" fill="#000000"/>
      <path d="M861.457,352.041 L863.856,347.891 C865.558,344.947 866.517,343.057 866.751,342.192 C866.988,341.341 866.705,340.905 865.896,340.905 C864.906,340.905 864.079,341.271 863.42,342 C862.764,342.729 861.516,344.7 859.671,347.891 L857.268,352.041 z M870.482,361.311 L851.929,361.311 L844.821,373.601 C843.346,376.172 842.533,377.832 842.411,378.571 C842.289,379.314 842.669,379.687 843.548,379.687 C844.633,379.687 845.654,379.195 846.586,378.205 C847.517,377.218 848.8,375.317 850.436,372.489 L854.767,364.99 L868.359,364.99 L865.931,369.182 C863.905,372.701 862.165,375.394 860.714,377.284 C859.249,379.174 857.226,381.187 854.652,383.325 C852.065,385.473 849.421,387.074 846.736,388.148 C844.043,389.226 841.138,389.756 838.017,389.756 C834.986,389.756 832.621,389.229 830.912,388.165 C829.203,387.116 828.244,385.658 828.011,383.816 C827.781,381.985 828.06,379.952 828.841,377.741 C829.619,375.516 831.233,372.3 833.678,368.07 L843.248,351.497 C846.125,346.524 848.943,342.607 851.709,339.733 C854.481,336.863 857.571,334.659 860.982,333.131 C864.4,331.604 867.752,330.837 871.037,330.837 C875.062,330.837 877.845,331.757 879.4,333.606 C880.949,335.447 881.378,337.878 880.666,340.923 C879.969,343.967 878.023,348.253 874.842,353.764 z" fill="#000000"/>
      <path d="M587.971,308.555 L589.851,308.555 L588.909,308.077 z M380.265,241.29 L354.558,237.562 L351.499,231.288 L334.616,231.288 L331.564,237.6 L305.868,241.423 L316.149,251.579 L369.931,251.579 z M607.223,317.323 L605.65,308.555 L589.851,308.555 z M505.908,175.092 L563.663,251.579 L369.931,251.579 L361.704,259.771 L366.147,285.785 L343.129,273.547 L320.167,285.865 L324.509,259.837 L316.149,251.579 L282.693,251.579 L251.472,308.555 L572.19,308.555 L574.094,297.74 L559.265,283.825 L579.706,280.94 L588.829,263.039 L598.015,280.902 L618.48,283.741 L603.704,297.684 L605.65,308.555 L669.811,308.555 L581.617,213.337 L855.566,185.241 z M570.631,317.4 L587.971,308.555 L572.19,308.555 z M394.554,199.01 L400.235,187.62 L405.958,198.986 L418.705,200.785 L409.494,209.665 L411.699,222.157 L400.287,216.277 L388.9,222.196 L391.056,209.696 L381.817,200.848 z M351.499,231.288 L537.907,231.288 L464.542,156.361 L857.122,164.947 L387.275,118.119 L434.106,175.092 L278.79,175.092 L247.57,234.409 L182.788,234.409 L135.182,308.555 L230.404,308.555 L276.45,231.288 L334.616,231.288 L343.021,213.885 z" fill="#000000"/>
      <path d="M783.48,392.264 L80.252,392.264 L80.252,394.799 L783.738,394.799 C783.448,394.105 783.375,393.254 783.48,392.264 M812.514,392.264 C812.371,392.379 812.245,392.487 812.099,392.606 C811.025,393.432 809.881,394.137 808.712,394.799 L855.313,394.799 L855.313,392.264 z M784.306,395.731 C785.991,397.603 789.123,398.538 793.691,398.538 C797.406,398.538 800.778,398.036 803.816,397.014 C805.542,396.442 807.161,395.675 808.712,394.799 L783.738,394.799 C783.884,395.141 784.066,395.462 784.306,395.731 M809.019,371.004 C809.197,370.247 810.013,368.608 811.485,366.058 L822.513,346.95 C823.897,344.547 825,342.946 825.816,342.126 C826.628,341.314 827.448,340.902 828.278,340.902 C829.129,340.902 829.474,341.269 829.31,341.98 C829.15,342.695 828.309,344.352 826.813,346.95 L816.643,364.562 C814.784,367.781 813.442,369.856 812.633,370.773 C811.82,371.687 810.941,372.141 809.996,372.141 C809.162,372.141 808.842,371.767 809.019,371.004 M817.658,387.12 C818.882,385.39 821.198,381.578 824.612,375.656 L849.89,331.87 L836.547,331.87 L833.045,336.159 C832.902,334.384 832.358,333.055 831.389,332.166 C830.423,331.287 829.038,330.837 827.242,330.837 C823.95,330.837 820.818,332.03 817.843,334.391 C814.865,336.763 811.816,340.651 808.692,346.05 L796.775,366.71 C794.595,370.48 793.224,373.382 792.659,375.433 C792.101,377.463 792.283,379.112 793.238,380.364 C794.176,381.623 795.934,382.258 798.518,382.258 C800.008,382.258 801.622,381.913 803.38,381.229 C805.138,380.535 807.024,379.527 809.037,378.174 L806.561,382.467 C805.134,384.933 804.029,386.548 803.23,387.312 C802.421,388.089 801.479,388.469 800.395,388.469 C798.878,388.469 798.843,387.217 800.293,384.696 L786.385,384.696 C784.645,387.81 783.696,390.314 783.48,392.264 L812.514,392.264 C814.777,390.457 816.507,388.748 817.658,387.12" fill="#000000"/>
      <path d="M55.581,265.294 L71.509,256.547 L87.471,265.228 L85.187,251.577 L57.82,251.577 z M150.495,90.267 L148.619,100.834 L158.538,95.826 L168.481,100.796 L167.037,92.844 L155.479,91.166 L150.83,81.628 L142.443,82.803 z M170.396,193.893 L152.682,184.874 L135,193.956 L138.345,174.785 L123.997,161.232 L143.782,158.414 L152.598,140.955 L161.481,158.386 L181.273,161.134 L166.981,174.739 z M107.012,95.069 L132.583,91.215 L143.974,67.566 L150.83,81.628 L153.547,81.251 L158.496,71.632 L163.48,81.234 L174.587,82.747 L166.563,90.246 L167.037,92.844 L181.074,94.881 L162.611,113.323 L167.047,139.281 L144.127,127.078 L121.276,139.393 L125.573,113.421 z M82.986,194.51 L70.553,188.247 L58.137,194.556 L60.488,181.24 L50.416,171.824 L64.303,169.867 L70.497,157.741 L76.73,169.846 L90.628,171.761 L80.594,181.209 z M66.099,110.065 L68.851,104.716 L71.624,110.055 L77.804,110.899 L73.34,115.07 L74.403,120.94 L68.879,118.174 L63.355,120.961 L64.401,115.088 L59.919,110.927 z M223.333,122.917 L214.684,114.237 L226.608,112.43 L230.396,104.461 L230.396,38.514 L85.738,15.723 L91.789,28.107 L115.1,31.588 L98.157,47.973 L102.049,71.224 L81.229,60.169 L60.321,71.057 L64.398,47.837 L47.584,31.316 L70.919,28.02 L77.685,14.457 L2.5,2.613 L2.5,251.577 L57.82,251.577 L58.591,246.834 L45.666,233.777 L63.491,231.067 L71.432,214.267 L79.432,231.046 L97.261,233.7 L84.388,246.796 L85.187,251.577 L159.375,251.577 L230.396,143.878 L230.396,130.241 L221.318,135.197 z M81.441,6.927 L77.685,14.457 L85.738,15.723 z M249.211,114.177 L237.284,112.413 L231.923,101.245 L230.396,104.461 L230.396,130.241 L231.976,129.38 L242.658,135.162 L240.597,122.889 z" fill="#000000"/>
    </g>
  </g>
  <defs/>
</svg>
