<?xml version="1.0" encoding="UTF-8"?>
<!DOCTYPE svg PUBLIC "-//W3C//DTD SVG 1.1//EN" "http://www.w3.org/Graphics/SVG/1.1/DTD/svg11.dtd">
<svg version="1.1" xmlns="http://www.w3.org/2000/svg" xmlns:xlink="http://www.w3.org/1999/xlink" x="0px" y="0px" width="1000" height="656.5" viewBox="0, 0, 1000, 656.5">
  <g id="Background">
    <rect x="0" y="0" width="1000" height="656.5" fill="#000000" fill-opacity="0"/>
  </g>
  <g id="Layer 1">
    <g>
      <path d="M997.383,220.735 C991.344,98.034 763.623,6.817 415.664,2.589 C54.539,-1.797 3.981,174.439 2.52,282.628 C0.525,430.348 148.724,653.991 391.427,653.991 C612.597,653.991 1005.259,380.068 997.383,220.735" fill="#1F2164"/>
      <path d="M982.402,226.007 C976.53,109.443 755.646,22.783 418.125,18.773 C67.835,14.6 18.793,182.03 17.375,284.808 C15.44,425.144 159.192,637.601 394.614,637.601 C609.152,637.601 990.043,377.37 982.402,226.007 z" fill-opacity="0" stroke="#FFFFFE" stroke-width="2"/>
      <path d="M204.135,309.873 C204.634,310.791 234.048,325.773 234.564,326.606 C229.452,326.606 144.082,326.473 135.135,326.273 C126.183,326.072 99.23,313.575 99.23,310.855 C101.792,310.855 203.366,309.313 204.135,309.873" fill="#CC0E22"/>
      <path d="M332.777,308.588 C338.248,308.588 561.844,315.285 564.752,315.66 C575.16,316.997 586.107,319.931 581.302,321.533 C538.978,324.053 437.631,323.668 436.627,323.668 C436.08,322.835 322.484,326.248 319.747,326.248 C318.38,326.248 304.957,326.871 303.59,326.871 C304.124,325.94 330.057,308.588 332.777,308.588" fill="#CC0E22"/>
      <path d="M372.474,230.211 C372.474,287.441 326.08,333.839 268.846,333.839 C211.626,333.839 165.231,287.441 165.231,230.211 C165.231,172.991 211.626,126.592 268.846,126.592 C326.08,126.592 372.474,172.991 372.474,230.211" fill="#F7EB28"/>
      <path d="M283.871,170.737 C355.382,168.584 348.728,244.409 334.685,250.123 C290.303,268.189 339.452,306.528 358.102,260.117 C375.536,216.738 342.68,168.225 324.768,158.616 C303.09,146.986 284.298,148.515 262.85,154.272 C239.386,160.568 204.685,186.103 195.652,210.451 C187.076,233.574 189.66,285.059 214.897,294.89 C245.143,306.678 257.285,279.417 230.216,266.613 C215.285,259.549 216.08,233.625 223.929,211.634 C226.496,204.446 243.174,171.962 283.871,170.737" fill="#CC0E22"/>
      <path d="M542.574,215.58 C541.237,216.648 536.168,216.917 534.297,216.114 C532.431,215.311 536.168,184.617 536.701,182.746 C537.235,180.88 532.58,182.806 530.829,181.947 C528.694,179.543 533.998,177.25 534.566,176.874 C536.633,175.541 536.586,175.9 538.034,174.474 C537.936,173.833 540.579,146.397 542.663,142.643 C547.255,142.267 569.715,137.193 570.603,137.902 C571.936,138.97 570.736,147.597 570.236,148.84 C569.702,150.177 552.209,147.23 546.452,153.67 C545.367,156.638 545.243,173.671 545.243,173.406 C550.582,173.137 570.983,169.737 571.402,171.001 C571.671,171.804 571.402,178.744 570.603,179.543 C569.8,180.346 552.2,181.537 544.175,181.678 C544.491,182.182 543.325,214.978 542.574,215.58" fill="#FFFFFE"/>
      <path d="M210.007,101.586 C209.375,90.2 225.988,122.047 228.692,124.541 C235.632,130.948 241.406,131.306 244.174,138.691 C246.941,146.071 243.516,155.723 236.435,153.639 C231.895,152.302 231.634,150.615 219.616,133.083 C213.21,123.743 210.541,111.195 210.007,101.586" fill="#CC0E22"/>
      <path d="M316.244,142.692 C312.781,142.458 304.106,136.461 307.169,133.617 C314.907,126.408 323.184,107.189 334.664,93.578 C340.802,84.233 324.252,143.226 316.244,142.692" fill="#CC0E22"/>
      <path d="M99.232,121.338 C130.729,121.069 187.587,176.859 198.529,180.331 C198.512,187.528 195.061,197.68 189.987,195.813 C181.446,184.867 108.577,130.414 99.232,121.338" fill="#CC0E22"/>
      <path d="M459.051,149.633 C455.847,156.842 439.832,153.105 376.034,192.875 C368.026,196.881 352.544,184.867 364.823,179.264 C384.311,172.055 453.712,142.957 459.051,149.633" fill="#CC0E22"/>
      <path d="M99.499,220.902 C113.913,219.835 150.497,232.13 175.042,230.247 C181.982,229.713 173.705,244.127 170.237,244.392 C159.291,247.33 100.302,232.647 99.499,220.902" fill="#CC0E22"/>
      <path d="M504.428,251.866 C505.095,252.549 510.019,259.857 510.57,260.677 C505.112,260.677 397.939,265.695 396.59,265.746 C385.643,266.015 372.566,248.663 380.574,248.928 C390.982,246.258 503.728,251.183 504.428,251.866" fill="#CC0E22"/>
      <path d="M516.457,274.638 C515.671,257.879 458.783,220.902 459.535,191.609 C460.701,145.603 541.416,108.968 553.493,115.199 C565.571,121.43 548.74,141.541 542.966,148.332 C534.39,158.364 511.917,175.243 507.479,168.602 C503.042,161.96 516.525,153.769 520.343,146.773 C517.26,147.495 491.049,167.107 492.6,168.516 C475.884,196.221 537.042,243.405 535.176,243.072 C548.04,255.159 541.416,269.581 541.416,278.935 C554.275,282.445 589.394,216.956 600.703,221.244 C612.017,225.532 585.888,290.637 596.415,292.973 C606.943,295.309 626.444,244.242 643.596,244.242 C660.756,244.242 649.861,278.943 658.035,279.716 C666.21,280.493 711.938,216.939 727.419,221.628 C740.283,225.523 729.687,268.689 726.117,280.728 C729.32,277.192 753.595,241.056 769.128,243.072 C778.102,244.242 790.581,256.722 787.843,276.991 C787.062,285.567 800.306,280.186 801.877,278.157 C803.526,278.268 803.645,282.146 805.781,281.668 C774.198,338.585 776.936,288.685 753.877,278.149 C744.537,273.886 702.794,335.463 691.886,324.547 C680.974,313.627 696.174,286.34 702.029,264.896 C664.992,304.269 638.859,320.259 628.331,280.1 C618.59,304.658 585.222,324.201 576.095,314.404 C566.972,304.602 569.223,278.917 568.309,275.813 C558.947,294.523 541.599,296.501 528.15,296.475 C512.237,312.008 469.392,344.031 456.797,325.713 C444.203,307.395 503.196,281.664 506.313,287.117 C508.949,291.721 490.716,303.099 490.182,304.333 C487.893,309.638 517.243,291.397 516.457,274.638" fill="#FFFFFE"/>
      <path d="M124.557,415.734 C219.382,428.154 277.641,351.087 368.571,382.345 C260.95,383.054 184.583,455.863 124.557,415.734" fill="#FFFFFE"/>
      <path d="M278.307,490.174 C205.502,490.165 167.799,424.595 96.378,439.547 C177.793,451.019 229.543,515.141 278.307,490.174" fill="#FFFFFE"/>
      <path d="M477.844,567.366 C397.74,576.241 352.273,497.081 274.603,524.922 C364.867,529.637 425.701,605.219 477.844,567.366" fill="#FFFFFE"/>
      <path d="M825.203,608.252 C711.41,608.261 513.965,530.173 395.987,483.518 C348.811,464.854 311.548,450.124 296.036,446.716 C294.388,446.353 293.188,444.931 293.102,443.248 C293.021,441.57 294.067,440.041 295.669,439.515 C374.453,413.677 468.57,399.451 560.679,399.451 C666.805,399.451 861.992,419.6 976.954,554.495 C984.274,563.088 983.365,570.182 981.323,574.619 C969.869,599.407 893.164,608.252 825.203,608.252" fill="#329E37"/>
      <path d="M560.715,395.715 L560.676,395.715 C468.17,395.719 373.643,410.014 294.509,435.959 C291.306,437.01 289.204,440.076 289.375,443.437 C289.542,446.803 291.942,449.638 295.235,450.365 C310.46,453.704 347.591,468.392 394.604,486.983 C520.466,536.764 710.677,611.995 825.187,611.995 L825.2,611.995 C858.743,611.99 969.379,609.398 984.707,576.179 C987.214,570.751 988.397,562.167 979.8,552.075 C863.868,416.035 667.486,395.715 560.715,395.715 M560.676,403.189 C715.58,403.185 877.757,443.852 974.111,556.922 C999.886,587.168 920.926,604.512 825.2,604.521 C667.311,604.529 352.549,455.293 296.836,443.061 C370.039,419.059 463.954,403.193 560.676,403.189" fill="#FFFFFE"/>
      <path d="M698.533,643.908 C665.967,643.916 623.729,620.666 572.974,574.805 C554.78,558.371 506.49,541.467 486.216,536.953 C488.108,538.106 489.658,539.4 489.957,541.527 C490.171,543.005 489.667,544.44 488.544,545.576 L488.313,545.794 L488.044,545.977 C484.495,548.484 479.814,549.757 474.151,549.757 C438.968,549.757 367.709,499.656 354.627,486.578 L349.733,481.68 L356.511,480.279 C417.575,467.633 476.538,461.222 531.769,461.222 C730.833,461.222 833.517,544.307 838.954,575.877 C839.688,580.127 838.582,584.146 835.759,587.49 C825.385,599.811 791.611,602.404 765.094,602.404 C759.828,602.404 755.574,602.301 752.939,602.199 C749.693,612.295 736.496,643.908 698.533,643.908" fill="#CE1522"/>
      <path d="M531.772,457.484 C476.28,457.484 417.065,463.92 355.757,476.613 L342.193,479.423 L351.99,489.22 C365.751,502.981 437.335,553.488 474.145,553.488 C480.603,553.488 486.001,551.993 490.199,549.038 L490.72,548.67 L491.169,548.218 C492.702,546.693 493.59,544.746 493.723,542.704 C516.192,549.029 555.167,563.759 570.47,577.584 C621.933,624.076 665.022,647.647 698.531,647.647 C732.544,647.647 749.743,623.086 755.713,606.028 C758.22,606.092 761.411,606.143 765.084,606.143 C804.807,606.143 829.543,600.677 838.619,589.905 C842.177,585.686 843.565,580.612 842.642,575.244 C839.759,558.523 812.58,528.884 759.702,503.327 C716.43,482.417 641.754,457.484 531.772,457.484 M531.772,464.958 C731.147,464.958 830.372,548.038 835.275,576.516 C838.657,596.124 790.388,598.669 765.084,598.669 C756.204,598.669 750.157,598.353 750.157,598.353 C750.157,598.353 740.983,640.173 698.531,640.173 C672.214,640.173 633.114,624.106 575.479,572.036 C553.903,552.548 491.087,532.048 478.651,532.048 C477.874,532.048 477.297,532.129 476.934,532.292 C474.692,537.887 488.696,540.133 485.894,542.926 C482.858,545.066 478.856,546.014 474.145,546.014 C440.606,546.014 371.017,497.677 357.273,483.933 C422.169,470.497 480.316,464.958 531.772,464.958" fill="#FFFFFE"/>
      <path d="M867.727,572.605 C860.552,572.605 852.946,572.472 845.143,572.203 C843.875,572.161 842.713,571.477 842.06,570.392 C810.421,517.656 683.539,460.269 545.082,458.902 L541.896,458.885 C472.751,458.885 349.119,480.03 347.876,480.243 C347.671,480.282 347.461,480.299 347.256,480.299 C347.034,480.299 346.812,480.282 346.59,480.235 C240.673,461.46 240.994,456.647 241.25,452.778 C241.532,448.464 241.758,445.052 326.547,438.073 C360.787,435.25 395.363,433.051 405.314,432.431 C407.783,423.258 418.844,397.432 465.081,397.432 L465.93,397.432 C518.146,397.778 568.952,429.809 579.599,438.022 C823.17,457.732 906.605,523.776 942.262,552.002 C944.235,553.561 946.046,554.992 947.716,556.29 C948.707,557.05 949.249,558.28 949.159,559.527 C949.065,560.779 948.344,561.906 947.242,562.513 C945.38,563.551 927.314,572.605 867.727,572.605" fill="#F7EB28"/>
      <path d="M465.088,393.694 C420.261,393.694 406.569,417.21 402.537,428.852 C390.105,429.638 358.026,431.73 326.234,434.348 C302.446,436.309 283.449,438.175 269.769,439.901 C244.836,443.052 238.016,444.979 237.516,452.538 C237.016,460.187 244.926,462.596 258.947,466.196 C267.54,468.4 279.494,471.065 294.489,474.119 C319.896,479.295 345.684,483.877 345.94,483.92 C346.371,483.997 346.811,484.04 347.247,484.04 C347.67,484.04 348.092,484.001 348.515,483.929 C349.754,483.715 473.07,462.621 541.89,462.621 C542.958,462.621 544.009,462.63 545.047,462.638 C694.706,464.108 811.838,527.278 838.859,572.314 C840.162,574.488 842.481,575.85 845.014,575.935 C852.859,576.205 860.5,576.341 867.726,576.341 C928.265,576.341 947.108,566.856 949.056,565.775 C951.255,564.558 952.695,562.316 952.887,559.809 C953.079,557.297 951.994,554.867 950.004,553.326 C948.338,552.044 946.54,550.622 944.588,549.072 C908.713,520.675 824.864,454.289 580.973,434.387 C568.242,424.978 517.769,394.04 465.959,393.694 z M465.088,401.168 C465.357,401.168 465.635,401.168 465.908,401.168 C519.896,401.527 571.752,436.339 578.159,441.66 C835.323,462.263 914.167,535.085 945.434,559.241 C942.585,560.821 923.439,568.867 867.726,568.867 C860.816,568.867 853.342,568.743 845.27,568.466 C814.37,516.968 689.333,456.582 545.119,455.165 C544.056,455.156 542.984,455.147 541.89,455.147 C471.618,455.147 347.247,476.561 347.247,476.561 C347.247,476.561 244.623,458.359 244.973,453.029 C245.451,445.807 408.367,435.98 408.367,435.98 C408.367,435.98 411.882,401.168 465.088,401.168" fill="#FFFFFE"/>
      <path d="M480.463,408.986 C480.463,408.986 506.396,408.627 530.548,424.259 C520.951,427.094 494.318,419.996 480.463,408.986" fill="#FFFFFE"/>
      <path d="M632.585,479.105 C621.1,475.278 741.765,494.779 775.919,535.651 C775.919,535.651 781.522,533.977 749.042,535.651 C745.685,515.492 657.783,487.497 632.585,479.105" fill="#FFFFFE"/>
      <path d="M802.828,170.47 C794.82,165.665 770.13,202.877 759.35,199.281 C753.747,197.414 755.28,194.267 757.215,190.739 C764.689,177.128 785.21,144.575 771.595,137.102 C762.788,132.831 750.774,166.733 750.51,188.356 C748.592,192.4 742.502,194.937 739.581,196.377 C737.428,193.161 741.968,183.282 737.163,181.945 C732.359,180.613 727.204,199.208 718.846,200.267 C717.095,198.807 717.325,187.66 723.014,175.808 C717.411,168.334 707.267,189.424 701.126,191.29 C694.989,193.161 700.058,182.479 694.186,182.214 C688.313,181.945 679.14,188.569 678.055,190.607 C680.592,185.418 682.24,173.865 678.17,173.673 C674.1,173.481 666.425,183.726 662.274,184.85 C663.073,181.078 661.189,173.391 657.35,175.274 C653.515,177.158 635.611,196.962 634.629,195.578 C638.199,190.948 636.265,183.547 635.995,181.945 C634.663,181.681 625.318,174.74 621.048,172.336 C616.777,176.073 611.925,189.957 608.504,190.756 C609.021,187.762 609.303,173.938 603.964,173.673 C598.626,173.404 597.46,175.757 594.889,176.607 C595.422,174.74 597.024,169.402 590.618,175.005 C584.211,180.613 567.581,194.843 569.358,198.538 C570.609,199.332 573.445,197.013 575.764,196.671 C569.891,212.153 589.516,214.331 596.943,206.528 C599.228,208.296 603.964,207.575 607.518,204.611 C611.071,201.651 619.997,187.463 620.514,187.019 C621.099,189.663 624.618,189.129 627.189,189.688 C624.302,195.578 623.034,211.418 623.918,213.135 C625.955,217.099 634.129,209.975 637.597,207.306 C641.069,204.636 646.173,196.53 649.876,193.161 C649.995,193.575 645.34,207.84 650.41,208.373 C655.483,208.907 667.493,189.957 669.095,191.025 C670.696,192.093 666.694,208.373 670.965,208.642 C675.236,208.907 688.548,191.29 689.932,192.426 C691.316,193.558 697.923,216.381 709.403,196.095 C710.201,202.501 709.134,205.704 711.004,207.306 C727.819,213.178 728.805,194.493 732.474,199.033 C742.617,211.577 747.037,197.965 750.206,197.786 C750.774,213.981 766.175,207.805 770.463,204.56 C770.48,206.639 767.593,213.447 775.332,212.913 C783.075,212.379 788.144,205.439 795.084,199.832 C797.22,214.78 810.067,206.545 813.402,201.843 C812.702,201.967 812.437,194.493 812.971,195.296 C809.802,195.885 807.931,197.145 804.694,197.431 C801.491,197.713 807.897,189.155 804.16,185.418 C800.423,181.681 787.077,197.965 784.177,195.296 C781.273,192.627 803.092,180.613 802.828,170.47 M597.609,187.553 C601.662,190.491 595.072,198.196 595.072,198.196 C595.072,198.196 589.016,201.702 587.415,198.764 C585.813,195.83 593.556,184.615 597.609,187.553 M768.926,150.448 C774.448,153.638 761.985,178.208 757.45,180.613 C758.248,174.74 764.121,155.522 768.926,150.448" fill="#FFFFFE"/>
    </g>
  </g>
  <defs/>
</svg>
